<?xml version="1.0" standalone="no"?>
<!DOCTYPE svg PUBLIC "-//W3C//DTD SVG 20010904//EN"
 "http://www.w3.org/TR/2001/REC-SVG-20010904/DTD/svg10.dtd">
<svg version="1.0" xmlns="http://www.w3.org/2000/svg"
 width="1200.000000pt" height="576.000000pt" viewBox="0 0 1200.000000 576.000000"
 preserveAspectRatio="xMidYMid meet">
<metadata>
Created by potrace 1.16, written by Peter Selinger 2001-2019
</metadata>
<g transform="translate(0.000000,576.000000) scale(0.100000,-0.100000)"
fill="#000000" stroke="none">
<path d="M3995 5289 c-297 -43 -542 -263 -632 -567 -16 -52 -18 -151 -23
-1068 l-5 -1012 -190 164 -190 164 -157 -162 c-86 -89 -156 -163 -155 -163 1
0 223 -220 494 -489 l491 -489 344 339 c189 187 412 406 496 488 84 81 152
151 150 156 -2 4 -81 78 -177 164 l-174 157 -169 -168 -168 -168 2 980 3 980
33 64 c63 120 179 202 314 221 86 13 368 12 448 -1 137 -22 253 -106 313 -228
31 -64 32 -70 37 -226 l5 -160 338 0 337 0 0 162 c0 231 -28 356 -111 496
-115 194 -328 335 -552 366 -94 13 -1013 13 -1102 0z m1185 -38 c269 -80 455
-266 530 -531 17 -58 23 -115 27 -252 l6 -178 -321 0 -320 0 -4 148 c-3 140
-4 150 -34 212 -45 94 -111 162 -198 206 -89 43 -156 53 -361 53 -189 0 -280
-11 -350 -45 -71 -33 -163 -118 -198 -183 -52 -95 -57 -145 -57 -633 l0 -448
-270 0 -270 0 0 484 c0 535 5 598 61 732 99 239 333 419 587 453 37 5 299 8
582 7 501 -2 517 -3 590 -25z"/>
<path d="M4929 3606 c-272 -267 -494 -490 -494 -495 0 -5 78 -80 174 -166
l173 -157 162 161 c89 88 166 161 171 161 9 0 10 -602 2 -1610 l-2 -325 -32
-67 c-41 -88 -113 -160 -201 -201 l-67 -32 -243 -3 c-223 -3 -249 -2 -311 17
-116 35 -219 130 -263 241 -18 46 -23 80 -26 208 l-4 152 -339 0 -339 0 0
-160 c0 -174 14 -266 56 -378 86 -230 290 -408 538 -472 75 -19 110 -20 613
-20 610 0 613 0 779 80 209 101 358 289 414 523 19 79 20 121 20 1065 0 609 4
982 9 980 6 -1 79 -62 163 -134 84 -72 167 -143 184 -157 l31 -26 156 158 155
158 -492 492 -492 492 -495 -485z m903 42 l40 -48 -453 0 -454 0 230 230 230
230 183 -183 c101 -100 201 -203 224 -229z m-145 -2320 c-6 -247 -20 -317 -89
-451 -32 -62 -64 -104 -133 -173 -99 -100 -177 -150 -303 -193 l-77 -26 -549
-3 c-459 -2 -560 0 -622 12 -260 54 -477 247 -561 501 -24 73 -27 97 -31 273
l-4 192 310 0 309 0 6 -132 c4 -103 10 -147 28 -193 43 -116 116 -196 228
-249 l66 -31 263 -3 c226 -3 270 -1 315 14 76 25 128 58 185 117 97 104 122
185 122 404 l0 153 271 0 272 0 -6 -212z"/>
<path d="M8881 3023 c7 -10 27 -34 44 -53 38 -42 878 -1109 896 -1138 11 -18
6 -27 -48 -88 -92 -106 -1006 -1215 -1002 -1217 2 -1 207 0 456 3 l452 5 276
400 c152 220 282 405 288 412 9 8 83 -89 302 -400 l290 -412 425 -5 c234 -3
427 -4 428 -3 2 1 -61 82 -140 180 -79 98 -301 374 -492 613 -192 239 -364
451 -382 470 l-34 36 446 549 c246 303 466 572 490 599 24 26 44 52 44 57 0 5
-179 9 -417 9 l-418 -1 -270 -384 c-148 -212 -272 -385 -275 -385 -3 0 -120
173 -260 385 l-255 385 -429 0 c-406 0 -428 -1 -415 -17z m2066 -1611 c56 -70
234 -291 396 -492 l294 -365 -386 -3 c-212 -1 -391 0 -397 2 -6 2 -142 191
-303 420 -161 229 -296 416 -300 416 -4 0 -138 -189 -297 -420 l-289 -420
-423 0 -424 0 40 48 c21 26 193 234 382 462 188 228 356 430 373 448 l31 32
600 0 601 -1 102 -127z"/>
<path d="M1450 3003 c-21 -47 -1092 -2447 -1097 -2460 -7 -19 730 -19 744 -1
5 7 46 103 91 213 44 110 91 224 103 253 l22 52 547 0 547 0 103 -253 c57
-138 107 -258 113 -264 12 -16 751 -19 745 -4 -1 5 -253 568 -558 1250 l-555
1241 -396 0 -396 0 -13 -27z m770 -1493 c0 -3 -160 -5 -356 -6 -321 -1 -354 1
-349 15 3 9 83 213 177 453 l172 437 178 -447 c98 -246 178 -449 178 -452z
m-735 0 l-7 -30 387 0 387 0 -7 30 -7 30 328 -2 328 -3 218 -485 c120 -266
218 -486 218 -487 0 -2 -157 -3 -348 -3 l-348 0 -104 258 -105 257 -565 2
-565 3 -105 -260 -105 -260 -348 0 c-223 0 -347 4 -345 10 2 5 100 226 218
490 l215 480 333 0 334 0 -7 -30z"/>
<path d="M6265 1796 c-302 -679 -551 -1242 -553 -1250 -3 -15 33 -16 368 -14
l372 3 106 262 107 263 550 -3 549 -2 107 -260 106 -260 371 -3 c218 -1 372 2
372 7 0 5 -47 114 -105 242 -57 129 -307 686 -554 1239 l-450 1005 -398 2
-398 3 -550 -1234z m1125 184 c89 -223 168 -421 175 -440 l12 -35 -358 -1
-358 -1 13 31 c7 17 86 219 177 448 90 229 167 414 171 410 3 -4 79 -189 168
-412z m-544 -455 c-3 -8 -9 -22 -12 -30 -5 -13 41 -15 385 -15 215 0 391 2
391 4 0 3 -4 16 -10 30 l-10 26 329 0 329 0 20 -47 c12 -27 111 -247 220 -491
l200 -442 -350 2 -351 3 -105 258 -105 257 -562 0 -563 0 -50 -122 c-28 -68
-75 -184 -106 -258 l-54 -135 -351 -3 -350 -2 120 267 c66 148 165 368 221
491 l100 222 335 0 c294 0 334 -2 329 -15z"/>
</g>
</svg>
